<?xml version="1.0" standalone="no"?>
<!DOCTYPE svg PUBLIC "-//W3C//DTD SVG 20010904//EN"
 "http://www.w3.org/TR/2001/REC-SVG-20010904/DTD/svg10.dtd">
<svg version="1.0" xmlns="http://www.w3.org/2000/svg"
 width="1024.000000pt" height="1024.000000pt" viewBox="0 0 1024.000000 1024.000000"
 preserveAspectRatio="xMidYMid meet">

<g transform="translate(0.000000,1024.000000) scale(0.100000,-0.100000)"
fill="#000000" stroke="none">
<path d="M2825 9189 c-469 -17 -773 -103 -1075 -304 -108 -72 -182 -133 -175
-144 2 -5 -10 -21 -28 -37 l-32 -29 29 33 c17 17 25 32 19 32 -16 0 -153 -149
-223 -242 -205 -271 -304 -606 -330 -1113 -13 -273 -13 -4213 0 -4440 23 -366
80 -606 206 -860 87 -175 174 -295 324 -445 227 -228 464 -360 791 -444 167
-43 318 -62 585 -76 300 -16 4496 -8 4614 8 271 38 412 72 580 139 582 232
964 733 1055 1385 34 244 36 462 33 2683 -5 2377 -2 2269 -59 2532 -50 233
-143 452 -266 623 -87 121 -253 287 -371 370 -291 205 -585 300 -1027 330
-173 11 -4332 11 -4650 -1z m-796 -173 c-2 -2 -15 -9 -29 -15 -24 -11 -24 -11
-6 3 16 13 49 24 35 12z m-519 -349 c0 -2 -12 -14 -27 -28 l-28 -24 24 28 c23
25 31 32 31 24z m-190 -232 c-17 -25 -33 -45 -36 -45 -3 0 9 20 26 45 17 25
33 45 36 45 3 0 -9 -20 -26 -45z m1750 -1045 c1061 -81 1642 -224 1966 -484
l67 -54 31 30 c86 84 301 199 499 267 370 127 841 199 1692 256 249 16 279 13
331 -39 18 -18 37 -50 43 -71 7 -26 11 -162 11 -373 l0 -333 -95 97 -95 96 0
195 c0 193 -5 225 -35 237 -16 6 -416 -23 -680 -49 -517 -52 -872 -121 -1178
-228 -152 -53 -268 -120 -353 -202 -52 -51 -63 -68 -73 -113 -8 -38 -11 -521
-11 -1748 l0 -1694 81 64 c189 149 448 249 859 330 371 73 723 112 1120 122
135 4 251 11 258 17 9 7 13 62 14 201 l2 191 5 -172 c4 -118 10 -176 19 -185
9 -9 12 -9 12 1 0 7 4 10 10 6 5 -3 6 -13 3 -22 -4 -11 -3 -14 5 -9 7 4 12 2
12 -4 0 -6 4 -9 9 -5 5 3 13 1 16 -5 5 -8 12 -7 23 2 13 11 15 10 9 -4 -4 -12
-2 -15 9 -11 9 3 14 -1 14 -13 0 -9 3 -14 8 -10 4 4 10 110 13 234 l6 227 -1
-260 c-1 -258 -1 -260 -25 -294 -41 -57 -58 -60 -418 -71 -452 -13 -674 -36
-1015 -105 -457 -92 -723 -191 -900 -334 -119 -97 -139 -106 -228 -106 -88 0
-101 6 -220 101 -216 171 -612 300 -1175 383 -243 36 -420 51 -760 62 -305 11
-333 13 -369 33 -22 11 -49 37 -60 56 -21 35 -21 41 -24 1845 -2 1239 0 1821
8 1846 14 51 46 88 94 110 46 22 26 22 466 -11z m-580 -470 l0 -90 -75 0 c-41
0 -86 -5 -100 -12 -58 -26 -55 83 -57 -1790 -2 -1262 -4 -1520 -8 -963 -3 418
-6 749 -8 736 -1 -17 -6 -22 -19 -17 -14 6 -14 3 3 -15 10 -12 13 -19 6 -15
-11 7 -12 4 -3 -12 10 -19 7 -23 -20 -37 -19 -10 -29 -22 -25 -31 7 -19 -4
-18 -20 4 -12 15 -12 15 -7 -6 5 -21 10 -23 42 -18 26 4 31 3 16 -4 -11 -5
-15 -9 -8 -9 7 -1 10 -8 6 -18 -5 -12 -3 -14 8 -9 8 4 6 1 -3 -7 -21 -17 -23
-38 -6 -55 7 -7 8 -12 4 -12 -5 0 -15 8 -22 18 -7 9 -14 12 -14 5 0 -13 -17
-12 -40 2 -12 7 -12 5 1 -11 16 -19 22 -54 9 -54 -3 0 -12 6 -19 13 -11 9 -13
9 -7 0 4 -7 0 -23 -8 -35 -13 -18 -16 -19 -16 -5 0 9 6 17 13 17 9 0 8 3 -2 9
-9 6 -10 11 -2 15 6 4 11 17 11 29 0 18 -2 19 -10 7 -8 -12 -10 -8 -12 15 -2
17 -5 -267 -8 -630 -3 -423 -6 -19 -8 1123 -2 1961 -7 1807 57 1875 53 58 107
73 269 76 l82 1 0 -90z m4937 -240 c167 -76 248 -250 195 -416 -13 -42 -117
-221 -329 -565 -171 -277 -428 -697 -573 -934 -363 -595 -325 -541 -433 -615
-50 -35 -185 -128 -298 -207 -114 -79 -215 -143 -226 -143 -38 0 -63 28 -63
72 0 59 147 654 174 708 23 43 1133 1836 1233 1989 97 151 174 177 320 111z
m280 -619 c14 -20 23 -49 23 -71 0 -40 4 -33 -201 -360 -75 -118 -173 -278
-219 -355 -45 -77 -91 -149 -101 -159 -23 -25 -77 -25 -95 -1 -29 40 -16 70
134 312 81 131 206 336 277 455 84 141 135 217 145 215 8 -1 25 -17 37 -36z
m-5483 -1376 c-7 -17 -34 -21 -34 -4 0 5 4 8 9 4 5 -3 12 -1 16 5 9 15 15 12
9 -5z m-127 -1437 c-3 -8 -6 -5 -6 6 -1 11 2 17 5 13 3 -3 4 -12 1 -19z m209
-10 l29 -33 -32 29 c-18 17 -33 31 -33 33 0 8 8 1 36 -29z m-182 -44 c3 -8 2
-12 -4 -9 -6 3 -10 10 -10 16 0 14 7 11 14 -7z m46 -66 c19 -24 26 -37 17 -29
-19 15 -61 71 -54 71 2 0 19 -19 37 -42z"/>
<path d="M2701 7192 c-8 -15 -11 -493 -11 -1729 0 -1476 2 -1711 14 -1729 14
-20 28 -21 218 -28 637 -22 1180 -103 1581 -237 203 -68 346 -142 470 -242
l57 -47 0 1702 c0 1074 -4 1716 -10 1737 -20 70 -89 139 -215 215 -181 109
-598 222 -1055 285 -255 36 -671 76 -901 87 -132 7 -137 6 -148 -14z m779
-881 c482 -55 645 -84 930 -166 224 -65 233 -68 259 -96 26 -29 27 -63 1 -89
-28 -28 -61 -25 -181 15 -289 98 -687 169 -1179 211 -199 17 -206 18 -232 45
-34 33 -36 71 -7 100 25 25 -5 26 409 -20z m-129 -551 c505 -47 858 -112 1183
-217 113 -36 156 -65 156 -103 0 -25 -42 -70 -66 -70 -9 0 -75 20 -148 44
-271 91 -735 175 -1146 206 -230 17 -280 33 -280 87 0 28 41 73 68 73 10 0
115 -9 233 -20z m210 -595 c222 -28 358 -49 378 -59 58 -30 65 -90 16 -122
-23 -15 -34 -15 -162 9 -175 33 -242 42 -486 67 -109 11 -207 25 -218 30 -45
24 -51 79 -12 110 23 18 35 20 82 15 31 -4 212 -26 402 -50z"/>
<path d="M2242 5025 c0 -16 2 -22 5 -12 2 9 2 23 0 30 -3 6 -5 -1 -5 -18z"/>
<path d="M2240 4949 c0 -5 -5 -7 -11 -3 -8 4 -8 1 -2 -12 5 -11 11 -37 12 -59
1 -21 4 -41 7 -44 3 -3 4 25 2 62 -1 37 -3 67 -5 67 -2 0 -3 -5 -3 -11z"/>
<path d="M2221 4814 c0 -11 3 -14 6 -6 3 7 2 16 -1 19 -3 4 -6 -2 -5 -13z"/>
<path d="M2175 4740 c-3 -6 1 -7 10 -4 11 5 14 2 9 -10 -5 -12 -2 -15 10 -10
13 5 14 9 5 20 -13 16 -25 18 -34 4z"/>
<path d="M2098 4633 c6 -2 18 -2 25 0 6 3 1 5 -13 5 -14 0 -19 -2 -12 -5z"/>
<path d="M2150 4629 c-12 -8 -10 -9 7 -4 12 3 24 1 28 -4 4 -7 0 -8 -11 -4
-14 5 -15 3 -4 -18 13 -23 13 -23 21 -4 4 11 8 26 8 33 1 15 -28 16 -49 1z"/>
<path d="M2144 4593 c2 -9 8 -19 14 -21 14 -4 15 0 6 22 -8 21 -23 20 -20 -1z"/>
<path d="M2135 4530 c3 -5 8 -10 11 -10 2 0 4 5 4 10 0 6 -5 10 -11 10 -5 0
-7 -4 -4 -10z"/>
<path d="M7287 6558 c-8 -7 -50 -67 -91 -133 l-76 -120 23 -17 c39 -30 239
-149 243 -145 19 19 107 179 115 210 20 75 -14 155 -85 198 -35 22 -104 25
-129 7z"/>
<path d="M7029 6158 c-16 -30 -727 -1180 -940 -1520 l-49 -78 133 -89 133 -89
199 327 c109 179 332 545 496 812 164 267 299 491 301 497 3 10 -233 162 -252
162 -5 0 -15 -10 -21 -22z"/>
<path d="M5971 4403 c-68 -261 -93 -364 -89 -369 3 -3 75 45 159 106 85 62
161 116 169 120 10 6 12 12 5 18 -11 10 -202 144 -222 156 -8 4 -15 -6 -22
-31z"/>
</g>
</svg>
